<svg width="36" height="36" viewBox="0 0 36 36" fill="none" xmlns="http://www.w3.org/2000/svg">
<rect x="6" y="28" width="24" height="2" rx="1" fill="black"/>
<path fill-rule="evenodd" clip-rule="evenodd" d="M19 8C19 7.44772 18.5523 7 18 7C17.4477 7 17 7.44772 17 8V20.8258L11.6508 16.2407C11.2315 15.8813 10.6002 15.9299 10.2408 16.3492C9.88134 16.7685 9.9299 17.3998 10.3492 17.7593L17.0889 23.5361C17.6132 23.9855 18.3868 23.9855 18.9111 23.5361L25.6508 17.7593C26.0701 17.3998 26.1187 16.7685 25.7593 16.3492C25.3999 15.9299 24.7686 15.8813 24.3492 16.2407L19 20.8258V8Z" fill="black"/>
</svg>
