<svg width="41" height="40" viewBox="0 0 41 40" fill="none" xmlns="http://www.w3.org/2000/svg">
<path d="M32.8617 11.1317C34.5783 12.955 35.5 15 35.5 18.315C35.5 24.1484 31.405 29.3767 25.45 31.9617L23.9617 29.665C29.52 26.6584 30.6067 22.7567 31.04 20.2967C30.145 20.76 28.9733 20.9217 27.825 20.815C24.8183 20.5367 22.4483 18.0684 22.4483 15C22.4483 13.4529 23.0629 11.9692 24.1569 10.8752C25.2508 9.78127 26.7346 9.16669 28.2817 9.16669C30.07 9.16669 31.78 9.98335 32.8617 11.1317ZM16.195 11.1317C17.9117 12.955 18.8333 15 18.8333 18.315C18.8333 24.1484 14.7383 29.3767 8.78332 31.9617L7.29499 29.665C12.8533 26.6584 13.94 22.7567 14.3733 20.2967C13.4783 20.76 12.3067 20.9217 11.1583 20.815C8.15166 20.5367 5.78333 18.0684 5.78333 15C5.78333 13.4529 6.39791 11.9692 7.49187 10.8752C8.58583 9.78127 10.0696 9.16669 11.6167 9.16669C13.405 9.16669 15.115 9.98335 16.1967 11.1317H16.195Z" fill="#F59E00"/>
</svg>
