<svg width="36" height="36" viewBox="0 0 36 36" fill="none" xmlns="http://www.w3.org/2000/svg">
<path d="M9.01438 19.7892L9.01445 19.7892L9.022 19.7996C10.2303 21.4682 11.6853 22.9209 13.1963 24.2077L13.2133 24.2222L13.2296 24.2373C13.9196 24.8801 15.0503 25.8493 16.1078 26.6628C16.6373 27.0702 17.1325 27.4262 17.5355 27.6801C17.7302 27.8027 17.8888 27.8922 18.0096 27.9508C18.1442 27.8862 18.3258 27.7741 18.5599 27.598C18.7287 27.4711 18.8963 27.3336 19.0727 27.1887L19.0855 27.1782C19.2476 27.045 19.4262 26.8982 19.5947 26.7742C22.9223 24.2423 26.3382 21.2792 28.0494 18.1251C29.4556 15.1212 29.3553 11.6372 27.3984 9.56299C24.7489 7.2008 20.7835 7.68535 18.7893 10.1429L17.9924 11.125L17.2206 10.123C16.6874 9.43088 16.038 8.88743 15.2644 8.48606C12.018 7.21216 8.74532 8.5299 7.40039 11.3676C6.45694 14.3557 7.25826 17.4287 9.01438 19.7892Z" stroke="#020D37" stroke-width="2"/>
</svg>
